<?xml version="1.0" encoding="utf-8"?>
<!-- Generator: Adobe Illustrator 26.0.0, SVG Export Plug-In . SVG Version: 6.00 Build 0)  -->
<svg version="1.1" id="图层_1" xmlns="http://www.w3.org/2000/svg" xmlns:xlink="http://www.w3.org/1999/xlink" x="0px" y="0px"
	 viewBox="0 0 811 234.2" style="enable-background:new 0 0 811 234.2;" xml:space="preserve">
<style type="text/css">
	.st0{fill:#32558E;}
	.st1{fill:#333333;}
</style>
<g>
	<g>
		<polygon class="st0" points="135.5,141.7 116.7,158.6 113.4,149.8 113.4,149.8 102.6,119.8 0,165.4 113.6,81.1 117.5,91.8 
			124.1,110.1 129.4,124.4 183.8,98.6 135.6,141.7 135.6,141.7 		"/>
		<path class="st0" d="M72.2,95.7C79,57.4,115.6,32,153.8,38.9c14.6,2.5,28,9.8,38.3,20.3c-32-41.9-91.7-49.8-133.6-17.8
			c-28,21.4-41.9,56.5-36.1,91.2L72.2,95.7z"/>
		<path class="st0" d="M165.1,174.4c-15.1,5.4-31.7,5.6-47,0.2l-7.1,6.6l-4.2-11.9c-10.9-6.1-19.8-14.9-25.9-25.6l-47.1,20.9
			c26.3,45.6,84.4,61.4,130,35.1c30.7-17.6,49-50.7,47.6-86.1C209.4,141.3,191.3,165.1,165.1,174.4z"/>
		<circle class="st0" cx="205" cy="84.7" r="12.5"/>
	</g>
	<g>
		<path class="st1" d="M337.1,156.8c0.6,1.7,0.9,3.1,1.1,4.1c0.1,1,0,1.8-0.6,2.3c-0.5,0.5-1.5,0.8-2.8,0.9
			c-1.3,0.1-3.2,0.2-5.6,0.2c-2.5,0-4.4,0-5.7-0.1c-1.4-0.1-2.4-0.2-3.1-0.4s-1.2-0.5-1.5-0.9s-0.5-0.9-0.7-1.5l-6.3-18.8h-35.1
			l-5.9,18.3c-0.2,0.7-0.4,1.2-0.8,1.7s-0.8,0.8-1.5,1.1s-1.7,0.4-3,0.5s-3,0.1-5,0.1c-2.2,0-4-0.1-5.2-0.2c-1.3-0.1-2.1-0.5-2.6-1
			c-0.5-0.6-0.7-1.3-0.5-2.4c0.1-1,0.5-2.4,1.1-4l28.8-83c0.3-0.8,0.6-1.5,1-2s1-0.9,1.8-1.2c0.8-0.3,2-0.4,3.5-0.5s3.5-0.1,5.9-0.1
			c2.8,0,5.1,0,6.8,0.1c1.7,0.1,3,0.2,3.9,0.5s1.6,0.7,2,1.2s0.8,1.3,1,2.2L337.1,156.8z M294.1,88.2L294.1,88.2L280.8,128h26.5
			L294.1,88.2z"/>
		<path class="st1" d="M405.6,156.4c0,1.4-0.1,2.6-0.2,3.5s-0.3,1.7-0.5,2.3s-0.5,1-0.9,1.3s-0.8,0.4-1.2,0.4h-47
			c-1.6,0-2.9-0.5-4-1.4s-1.6-2.5-1.6-4.6V76.3c0-2.1,0.5-3.7,1.6-4.6s2.4-1.4,4-1.4h46.7c0.4,0,0.8,0.1,1.2,0.4
			c0.3,0.2,0.6,0.7,0.9,1.3c0.2,0.6,0.4,1.4,0.5,2.3s0.2,2.1,0.2,3.6c0,1.3-0.1,2.5-0.2,3.4s-0.3,1.7-0.5,2.3
			c-0.2,0.6-0.5,1-0.9,1.3c-0.3,0.3-0.7,0.4-1.2,0.4h-33.4v22.8h28.3c0.4,0,0.8,0.1,1.2,0.4c0.4,0.3,0.7,0.7,0.9,1.2
			c0.2,0.6,0.4,1.3,0.5,2.2s0.2,2.1,0.2,3.4c0,1.4-0.1,2.6-0.2,3.5s-0.3,1.7-0.5,2.2c-0.2,0.6-0.5,1-0.9,1.2s-0.8,0.4-1.2,0.4h-28.3
			V149h33.7c0.4,0,0.8,0.1,1.2,0.4c0.4,0.3,0.7,0.7,0.9,1.3c0.2,0.6,0.4,1.3,0.5,2.3C405.5,153.9,405.6,155,405.6,156.4z"/>
		<path class="st1" d="M477.8,156.4c0,1.4-0.1,2.6-0.2,3.5s-0.3,1.7-0.5,2.3s-0.5,1-0.9,1.3s-0.8,0.4-1.2,0.4h-47
			c-1.6,0-2.9-0.5-4-1.4s-1.6-2.5-1.6-4.6V76.3c0-2.1,0.5-3.7,1.6-4.6s2.4-1.4,4-1.4h46.7c0.4,0,0.8,0.1,1.2,0.4
			c0.3,0.2,0.6,0.7,0.9,1.3c0.2,0.6,0.4,1.4,0.5,2.3s0.2,2.1,0.2,3.6c0,1.3-0.1,2.5-0.2,3.4s-0.3,1.7-0.5,2.3
			c-0.2,0.6-0.5,1-0.9,1.3c-0.3,0.3-0.7,0.4-1.2,0.4h-33.4v22.8h28.3c0.4,0,0.8,0.1,1.2,0.4c0.4,0.3,0.7,0.7,0.9,1.2
			c0.2,0.6,0.4,1.3,0.5,2.2s0.2,2.1,0.2,3.4c0,1.4-0.1,2.6-0.2,3.5s-0.3,1.7-0.5,2.2c-0.2,0.6-0.5,1-0.9,1.2s-0.8,0.4-1.2,0.4h-28.3
			V149H475c0.4,0,0.8,0.1,1.2,0.4c0.4,0.3,0.7,0.7,0.9,1.3s0.4,1.3,0.5,2.3C477.8,153.9,477.8,155,477.8,156.4z"/>
		<path class="st1" d="M556.9,78.1c0,1.4-0.1,2.6-0.2,3.6c-0.1,1-0.3,1.8-0.5,2.4s-0.5,1-0.9,1.3s-0.8,0.4-1.2,0.4h-23.4v75.4
			c0,0.5-0.2,0.9-0.5,1.3c-0.3,0.4-0.8,0.7-1.6,0.9c-0.7,0.2-1.7,0.4-2.9,0.6c-1.2,0.1-2.8,0.2-4.6,0.2s-3.4-0.1-4.6-0.2
			c-1.2-0.1-2.2-0.3-2.9-0.6c-0.7-0.2-1.2-0.6-1.6-0.9c-0.3-0.4-0.5-0.8-0.5-1.3V85.8h-23.4c-0.5,0-0.9-0.1-1.2-0.4
			s-0.6-0.7-0.9-1.3c-0.2-0.6-0.4-1.4-0.5-2.4s-0.2-2.2-0.2-3.6s0.1-2.7,0.2-3.7s0.3-1.8,0.5-2.4s0.5-1,0.9-1.3
			c0.3-0.3,0.7-0.4,1.2-0.4H554c0.4,0,0.8,0.1,1.2,0.4s0.7,0.7,0.9,1.3c0.2,0.6,0.4,1.4,0.5,2.4C556.8,75.5,556.9,76.7,556.9,78.1z"
			/>
		<path class="st1" d="M641,161.3c0,0.5-0.2,0.9-0.5,1.3c-0.3,0.4-0.8,0.7-1.6,0.9c-0.7,0.2-1.7,0.4-2.9,0.6
			c-1.2,0.1-2.7,0.2-4.6,0.2c-1.9,0-3.4-0.1-4.7-0.2c-1.2-0.1-2.2-0.3-2.9-0.6c-0.7-0.2-1.2-0.6-1.5-0.9c-0.3-0.4-0.5-0.8-0.5-1.3
			v-37.8h-35v37.8c0,0.5-0.1,0.9-0.4,1.3c-0.3,0.4-0.8,0.7-1.5,0.9s-1.7,0.4-2.9,0.6c-1.2,0.1-2.7,0.2-4.6,0.2
			c-1.8,0-3.4-0.1-4.6-0.2c-1.2-0.1-2.2-0.3-2.9-0.6c-0.7-0.2-1.2-0.6-1.6-0.9c-0.3-0.4-0.5-0.8-0.5-1.3V72.9c0-0.5,0.2-0.9,0.5-1.3
			s0.8-0.7,1.6-0.9c0.7-0.2,1.7-0.4,2.9-0.6c1.2-0.1,2.8-0.2,4.6-0.2c1.9,0,3.4,0.1,4.6,0.2c1.2,0.1,2.2,0.3,2.9,0.6
			c0.7,0.2,1.2,0.6,1.5,0.9c0.3,0.4,0.4,0.8,0.4,1.3v34.3h35V72.9c0-0.5,0.2-0.9,0.5-1.3s0.8-0.7,1.5-0.9c0.7-0.2,1.7-0.4,2.9-0.6
			c1.2-0.1,2.8-0.2,4.7-0.2c1.8,0,3.3,0.1,4.6,0.2c1.2,0.1,2.2,0.3,2.9,0.6c0.7,0.2,1.2,0.6,1.6,0.9c0.3,0.4,0.5,0.8,0.5,1.3V161.3z
			"/>
		<path class="st1" d="M716.8,156.4c0,1.4-0.1,2.6-0.2,3.5c-0.1,0.9-0.3,1.7-0.5,2.3s-0.5,1-0.9,1.3s-0.8,0.4-1.2,0.4h-47
			c-1.6,0-2.9-0.5-4-1.4s-1.6-2.5-1.6-4.6V76.3c0-2.1,0.5-3.7,1.6-4.6s2.4-1.4,4-1.4h46.7c0.4,0,0.8,0.1,1.2,0.4
			c0.3,0.2,0.6,0.7,0.9,1.3c0.2,0.6,0.4,1.4,0.5,2.3s0.2,2.1,0.2,3.6c0,1.3-0.1,2.5-0.2,3.4c-0.1,0.9-0.3,1.7-0.5,2.3
			c-0.2,0.6-0.5,1-0.9,1.3c-0.3,0.3-0.7,0.4-1.2,0.4h-33.4v22.8h28.3c0.4,0,0.8,0.1,1.2,0.4c0.4,0.3,0.7,0.7,0.9,1.2
			c0.2,0.6,0.4,1.3,0.5,2.2s0.2,2.1,0.2,3.4c0,1.4-0.1,2.6-0.2,3.5c-0.1,0.9-0.3,1.7-0.5,2.2c-0.2,0.6-0.5,1-0.9,1.2
			s-0.8,0.4-1.2,0.4h-28.3V149H714c0.4,0,0.8,0.1,1.2,0.4c0.4,0.3,0.7,0.7,0.9,1.3s0.4,1.3,0.5,2.3
			C716.7,153.9,716.8,155,716.8,156.4z"/>
		<path class="st1" d="M803,161.4c0,0.5-0.1,1-0.3,1.3c-0.2,0.4-0.7,0.7-1.4,0.9s-1.8,0.4-3.2,0.5s-3.3,0.1-5.7,0.1
			c-2,0-3.6,0-4.8-0.1s-2.2-0.3-2.9-0.5c-0.7-0.3-1.2-0.6-1.5-1s-0.5-0.9-0.7-1.5l-8.4-20.9c-1-2.4-2-4.5-3-6.3s-2-3.4-3.2-4.6
			c-1.2-1.2-2.5-2.2-4.1-2.8c-1.5-0.6-3.3-0.9-5.3-0.9h-5.9v35.6c0,0.5-0.2,0.9-0.5,1.3c-0.3,0.4-0.8,0.7-1.6,0.9
			c-0.7,0.2-1.7,0.4-2.9,0.6s-2.7,0.2-4.6,0.2c-1.8,0-3.4-0.1-4.6-0.2c-1.2-0.1-2.2-0.3-2.9-0.6c-0.7-0.2-1.2-0.6-1.5-0.9
			c-0.3-0.4-0.4-0.8-0.4-1.3v-85c0-2.1,0.5-3.7,1.6-4.6s2.4-1.4,4-1.4h24.2c2.5,0,4.5,0,6.1,0.1s3,0.2,4.3,0.4
			c3.8,0.5,7.1,1.4,10.2,2.7c3,1.3,5.6,3,7.7,5.1c2.1,2.1,3.7,4.6,4.8,7.4c1.1,2.9,1.7,6.2,1.7,9.9c0,3.1-0.4,6-1.2,8.6
			s-2,4.9-3.5,6.9s-3.4,3.8-5.7,5.3s-4.8,2.7-7.7,3.6c1.4,0.7,2.7,1.5,3.9,2.5s2.4,2.1,3.5,3.5s2.1,2.9,3.1,4.7s1.9,3.7,2.8,6
			l7.9,18.4c0.7,1.8,1.2,3.2,1.4,4C802.9,160.3,803,160.9,803,161.4z M778.5,97.9c0-3.1-0.7-5.7-2.1-7.8c-1.4-2.1-3.7-3.6-6.9-4.5
			c-1-0.2-2.1-0.4-3.3-0.6c-1.2-0.1-2.9-0.2-5.1-0.2h-8.5v26.5h9.7c2.7,0,5.1-0.3,7.1-1s3.7-1.6,5.1-2.7c1.3-1.2,2.4-2.6,3-4.2
			C778.1,101.8,778.5,100,778.5,97.9z"/>
	</g>
</g>
</svg>
